<svg width="45" height="45" viewBox="0 0 125 125" fill="currentColor" xmlns="http://www.w3.org/2000/svg">
<path d="M125 62.5C125 97.0178 97.0178 125 62.5 125C27.9822 125 0 97.0178 0 62.5C0 27.9822 27.9822 0 62.5 0C97.0178 0 125 27.9822 125 62.5ZM3.6823 62.5C3.6823 94.9841 30.0159 121.318 62.5 121.318C94.9841 121.318 121.318 94.9841 121.318 62.5C121.318 30.0159 94.9841 3.6823 62.5 3.6823C30.0159 3.6823 3.6823 30.0159 3.6823 62.5Z" fill="black"/>
<line x1="16.9946" y1="62.1613" x2="103.828" y2="62.0054" stroke="black" stroke-width="6" stroke-linecap="round"/>
<path d="M108 59.4019C110 60.5566 110 63.4434 108 64.5981L91.5 74.1244C89.5 75.2791 87 73.8357 87 71.5263V52.4737C87 50.1643 89.5 48.7209 91.5 49.8756L108 59.4019Z" fill="black"/>
</svg>
